<?xml version="1.0" standalone="no"?>
<!DOCTYPE svg PUBLIC "-//W3C//DTD SVG 20010904//EN"
 "http://www.w3.org/TR/2001/REC-SVG-20010904/DTD/svg10.dtd">
<svg version="1.0" xmlns="http://www.w3.org/2000/svg"
 width="512.000000pt" height="512.000000pt" viewBox="0 0 512.000000 512.000000"
 preserveAspectRatio="xMidYMid meet">
<metadata>
Created by potrace 1.14, written by Peter Selinger 2001-2017
</metadata>
<g transform="translate(0.000000,512.000000) scale(0.100000,-0.100000)"
fill="#000000" stroke="none">
<path d="M0 2560 l0 -2560 2560 0 2560 0 0 2560 0 2560 -2560 0 -2560 0 0
-2560z m2037 1899 c2866 -1062 2592 -960 2578 -965 -27 -10 -1384 -265 -1411
-266 -45 0 -2608 314 -2616 321 -12 10 314 1321 329 1321 7 0 511 -185 1120
-411z m1811 -1299 c54 -168 66 -256 66 -455 0 -133 -4 -203 -18 -270 -121
-609 -565 -1058 -1176 -1191 -121 -27 -448 -27 -570 -1 -235 50 -466 156 -637
294 -295 235 -493 570 -548 928 -17 113 -25 244 -14 251 7 4 1405 274 1422
274 4 0 7 -6 7 -14 0 -7 18 -50 41 -95 71 -143 210 -255 365 -296 75 -19 213
-19 288 0 248 65 426 293 426 546 l0 77 153 29 c83 17 155 27 159 24 3 -3 20
-49 36 -101z m-494 -162 c20 -75 -21 -138 -89 -138 -50 0 -95 44 -95 93 0 52
19 61 136 65 35 2 43 -1 48 -20z"/>
</g>
</svg>
